<svg width="95" height="61" viewBox="0 0 95 61" fill="none" xmlns="http://www.w3.org/2000/svg">
<g clip-path="url(#clip0_8_18678)">
<mask id="mask0_8_18678" style="mask-type:luminance" maskUnits="userSpaceOnUse" x="0" y="0" width="95" height="61">
<path d="M94.8106 0H0V60.7131H94.8106V0Z" fill="white"/>
</mask>
<g mask="url(#mask0_8_18678)">
<path d="M93.5328 59.0053C90.0122 58.1626 87.4916 54.9622 81.9535 46.5338L71.218 30.5191C78.9354 28.8345 84.8901 24.112 84.8901 15.852C84.8901 4.97803 74.9927 0.848023 65.1762 0.848023H40.3465V1.35339L41.6877 1.52184C44.2892 1.85874 46.5555 2.86947 46.5555 6.23853V54.4511C46.5555 58.6506 42.393 59.2837 40.5373 59.2837C36.7333 59.2837 35.1609 55.3572 35.1609 50.931V-0.00585938H34.7388L21.0953 3.36321V3.78143C25.0785 3.86857 26.0093 5.72156 26.0093 8.67237V20.2492C24.1478 19.7439 22.1937 19.4882 20.4189 19.4882C7.6253 19.4882 0 28.5092 0 41.2362C0 52.8711 6.18579 60.7071 14.9095 60.7071C20.5866 60.7071 24.5698 57.4193 26.3504 54.7241C26.7724 57.251 27.3968 58.6624 28.4143 59.8418H40.3523H63.6736V59.3363L62.3324 59.1679C58.2215 58.4941 56.3777 57.8203 56.3777 54.4452V31.5182H58.8921C61.4937 31.5182 62.4133 32.7845 64.5117 35.9851L73.8251 50.6522C76.6751 55.0377 79.6117 58.6568 80.3694 59.8418H94.7122V59.3363L93.5385 58.9991L93.5328 59.0053ZM19.8293 56.92C14.0655 56.92 9.747 51.2737 9.747 39.4703C9.747 26.9932 13.8111 20.0807 19.9969 20.0807C22.8759 20.0807 24.8242 21.684 26.0151 23.7054V50.2571C26.0151 51.6048 26.1018 52.8711 26.2695 54.0503C24.83 55.7348 23.0494 56.9138 19.8293 56.9138M66.0205 30.2577C65.0952 30.4261 64.0896 30.5074 63.0839 30.5074H56.3715V1.85294H61.9912C69.3736 1.85294 75.5823 5.56472 75.5823 16.6885C75.5823 25.0356 72.0617 29.1598 66.269 30.2577H66.0149H66.0205Z" fill="black"/>
<path d="M59.3195 59.0059C62.8401 58.1632 65.3607 54.9627 70.8988 46.5342L74.2637 41.5155L74.3329 41.4051C74.7955 40.6906 76.4487 38.3091 76.9057 37.6411L81.6805 30.5195H94.8096V31.0249L93.6358 31.3618C90.1152 32.204 87.5946 35.4047 82.0565 43.8332L71.2687 59.848H58.1401V59.3425L59.3133 59.0059H59.3195Z" fill="#FF0000"/>
</g>
</g>
<defs>
<clipPath id="clip0_8_18678">
<rect width="95" height="61" fill="white"/>
</clipPath>
</defs>
</svg>
