<svg width="33" height="33" viewBox="0 0 33 33" fill="none" xmlns="http://www.w3.org/2000/svg">
<g clip-path="url(#clip0_1_36547)">
<g clip-path="url(#clip1_1_36547)">
<path d="M6.48079 18.4922H26.4219V14.504H6.48079V18.4922Z" fill="white"/>
<path d="M1.29366 22.9021C4.83072 31.2993 14.5046 35.2391 22.9018 31.7041C31.299 28.169 35.2389 18.4931 31.7038 10.0939C28.1688 1.69473 18.4928 -2.24264 10.0937 1.29391C8.09644 2.13416 6.28439 3.35977 4.76107 4.90068C3.23775 6.4416 2.03304 8.26761 1.21579 10.2744C0.398533 12.2811 -0.0152359 14.4292 -0.00187302 16.596C0.0114899 18.7627 0.451725 20.9056 1.29366 22.9021ZM16.4489 3.03876C23.8735 3.03876 29.9091 9.07592 29.9091 16.499C29.9091 23.9221 23.8735 29.9592 16.4489 29.9592C9.02432 29.9592 2.98866 23.9201 2.98866 16.499C2.98866 9.07791 9.02931 3.03876 16.4489 3.03876Z" fill="white"/>
</g>
</g>
<defs>
<clipPath id="clip0_1_36547">
<rect width="33" height="33" fill="white" transform="matrix(-1 0 0 -1 33 33)"/>
</clipPath>
<clipPath id="clip1_1_36547">
<rect width="33" height="33.004" fill="white" transform="matrix(-1 0 0 -1 33 33)"/>
</clipPath>
</defs>
</svg>
