<svg width="33" height="33" viewBox="0 0 33 33" fill="none" xmlns="http://www.w3.org/2000/svg">
<g clip-path="url(#clip0_1_36563)">
<g clip-path="url(#clip1_1_36563)">
<path d="M18.4605 6.49121H14.4497V14.5127H6.42822V18.5235H14.4497V26.545H18.4605V18.5235H26.482V14.5127H18.4605V6.49121Z" fill="black"/>
<path d="M28.1535 4.81919C21.7027 -1.61708 11.2556 -1.60454 4.81937 4.84576C-1.61689 11.2961 -1.60486 21.7411 4.84594 28.1798C11.2967 34.6186 21.7413 34.6041 28.18 28.1533C31.2708 25.0554 33.0043 20.8567 32.9994 16.4807C32.9944 12.1047 31.2513 7.90996 28.1535 4.81919ZM16.4551 30.0544C8.99106 30.0544 2.91878 23.9821 2.91878 16.5181C2.91878 9.05404 8.99106 2.98176 16.4551 2.98176C23.9191 2.98176 29.9914 9.05404 29.9914 16.5181C29.9914 23.9821 23.9191 30.0544 16.4551 30.0544Z" fill="black"/>
</g>
</g>
<defs>
<clipPath id="clip0_1_36563">
<rect width="33" height="33" fill="white"/>
</clipPath>
<clipPath id="clip1_1_36563">
<rect width="33" height="32.9995" fill="white"/>
</clipPath>
</defs>
</svg>
